<svg width="17" height="24" viewBox="0 0 17 24" fill="none" xmlns="http://www.w3.org/2000/svg">
<path d="M1 23V20.5556C1 19.2589 1.51508 18.0154 2.43192 17.0986C3.34877 16.1817 4.59228 15.6667 5.88889 15.6667H10.7778C12.0744 15.6667 13.3179 16.1817 14.2347 17.0986C15.1516 18.0154 15.6667 19.2589 15.6667 20.5556V23M3.44444 5.88889C3.44444 7.1855 3.95952 8.42901 4.87637 9.34586C5.79321 10.2627 7.03672 10.7778 8.33333 10.7778C9.62995 10.7778 10.8735 10.2627 11.7903 9.34586C12.7071 8.42901 13.2222 7.1855 13.2222 5.88889C13.2222 4.59227 12.7071 3.34877 11.7903 2.43192C10.8735 1.51508 9.62995 1 8.33333 1C7.03672 1 5.79321 1.51508 4.87637 2.43192C3.95952 3.34877 3.44444 4.59227 3.44444 5.88889Z" stroke="#45474B" stroke-width="2" stroke-linecap="round" stroke-linejoin="round"/>
</svg>
